<?xml version="1.0" encoding="UTF-8" standalone="no"?>
<!-- Created with Inkscape (http://www.inkscape.org/) -->

<svg
   xmlns:dc="http://purl.org/dc/elements/1.1/"
   xmlns:cc="http://creativecommons.org/ns#"
   xmlns:rdf="http://www.w3.org/1999/02/22-rdf-syntax-ns#"
   xmlns:svg="http://www.w3.org/2000/svg"
   xmlns="http://www.w3.org/2000/svg"
   xmlns:sodipodi="http://sodipodi.sourceforge.net/DTD/sodipodi-0.dtd"
   xmlns:inkscape="http://www.inkscape.org/namespaces/inkscape"
   width="80"
   height="80"
   id="svg2"
   version="1.1"
   inkscape:version="0.47 r22583"
   sodipodi:docname="paopao2.svg">
  <sodipodi:namedview
     id="base"
     pagecolor="#ffffff"
     bordercolor="#666666"
     borderopacity="1.0"
     inkscape:pageopacity="0.0"
     inkscape:pageshadow="2"
     inkscape:zoom="0.35"
     inkscape:cx="375"
     inkscape:cy="520"
     inkscape:document-units="px"
     inkscape:current-layer="layer1"
     showgrid="false"
     showborder="false"
     inkscape:window-width="1366"
     inkscape:window-height="706"
     inkscape:window-x="-8"
     inkscape:window-y="-8"
     inkscape:window-maximized="1" />
  <defs
     id="defs4">
    <inkscape:perspective
       sodipodi:type="inkscape:persp3d"
       inkscape:vp_x="0 : 526.18109 : 1"
       inkscape:vp_y="0 : 1000 : 0"
       inkscape:vp_z="744.09448 : 526.18109 : 1"
       inkscape:persp3d-origin="372.04724 : 350.78739 : 1"
       id="perspective10" />
    <inkscape:perspective
       id="perspective2824"
       inkscape:persp3d-origin="0.5 : 0.33333333 : 1"
       inkscape:vp_z="1 : 0.5 : 1"
       inkscape:vp_y="0 : 1000 : 0"
       inkscape:vp_x="0 : 0.5 : 1"
       sodipodi:type="inkscape:persp3d" />
    <inkscape:perspective
       sodipodi:type="inkscape:persp3d"
       inkscape:vp_x="0 : 0.5 : 1"
       inkscape:vp_y="0 : 1000 : 0"
       inkscape:vp_z="1 : 0.5 : 1"
       inkscape:persp3d-origin="0.5 : 0.33333333 : 1"
       id="perspective2880" />
    <inkscape:perspective
       id="perspective2978"
       inkscape:persp3d-origin="256 : 170.66667 : 1"
       inkscape:vp_z="512 : 256 : 1"
       inkscape:vp_y="0 : 1000 : 0"
       inkscape:vp_x="0 : 256 : 1"
       sodipodi:type="inkscape:persp3d" />
  </defs>
  <metadata
     id="metadata7">
    <rdf:RDF>
      <cc:Work
         rdf:about="">
        <dc:format>image/svg+xml</dc:format>
        <dc:type
           rdf:resource="http://purl.org/dc/dcmitype/StillImage" />
        <dc:title></dc:title>
      </cc:Work>
    </rdf:RDF>
  </metadata>
  <g
     inkscape:label="Layer 1"
     inkscape:groupmode="layer"
     id="layer1"
     transform="translate(0,-972.3622)">
    <g
       id="g2958"
       transform="matrix(0.125,0,0,0.125,0,988.3622)">
      <path
         id="path2960"
         d="M 256,0 C 115.3,0 0,115.3 0,256 0,396.7 115.3,512 256,512 396.7,512 512,396.7 512,256 512,115.3 396.7,0 256,0 z"
         style="fill:#00c0f1" />
      <path
         id="path2962"
         d="M 512,256 C 512,396.7 396.7,512 256,512 V 0 c 140.7,0 256,115.3 256,256 z"
         style="fill:#009ae4" />
      <path
         id="path2964"
         d="m 316,301 c -16.6,0 -31.641,6.774 -42.513,17.7 L 256,308.5 193.767,272.177 C 195.211,267.027 196,261.605 196,256 c 0,-5.605 -0.789,-11.027 -2.233,-16.177 L 256,203.5 273.487,193.3 C 284.359,204.226 299.4,211 316,211 c 33.091,0 60,-26.909 60,-60 0,-33.091 -26.909,-60 -60,-60 -33.091,0 -60,26.909 -60,60 0,5.584 0.783,10.986 2.216,16.119 l -2.216,1.28 -77.495,45.293 C 167.634,202.771 152.596,196 136,196 c -33.091,0 -60,26.909 -60,60 0,33.091 26.909,60 60,60 16.596,0 31.634,-6.771 42.505,-17.692 L 256,343.6 l 2.216,1.28 C 256.783,350.013 256,355.415 256,361 c 0,33.091 26.909,60 60,60 33.091,0 60,-26.909 60,-60 0,-33.091 -26.909,-60 -60,-60 z"
         style="fill:#ececf1" />
      <g
         id="g2966">
        <path
           id="path2968"
           d="m 316,211 c 33.091,0 60,-26.909 60,-60 0,-33.091 -26.909,-60 -60,-60 -33.091,0 -60,26.909 -60,60 0,5.584 0.783,10.986 2.216,16.119 L 256,168.399 V 203.5 l 17.487,-10.2 C 284.359,204.226 299.4,211 316,211 z"
           style="fill:#d3d3d8" />
        <path
           id="path2970"
           d="m 316,301 c -16.6,0 -31.641,6.774 -42.513,17.7 L 256,308.5 v 35.1 l 2.216,1.28 C 256.783,350.013 256,355.415 256,361 c 0,33.091 26.909,60 60,60 33.091,0 60,-26.909 60,-60 0,-33.091 -26.909,-60 -60,-60 z"
           style="fill:#d3d3d8" />
      </g>
    </g>
  </g>
</svg>
